<svg xmlns="http://www.w3.org/2000/svg" xmlns:xlink="http://www.w3.org/1999/xlink" viewBox="0 0 100.79 57.91"><defs><style>.cls-1{fill:url(#무제_그라디언트_27);}.cls-2{fill:#f5c51d;}.cls-3{fill:#2184b5;}</style><linearGradient id="무제_그라디언트_27" x1="43.69" y1="35.74" x2="43.69" y2="35.74" gradientUnits="userSpaceOnUse"><stop offset="0" stop-color="#2184b5"/><stop offset="0.21" stop-color="#1e7eb0"/><stop offset="0.49" stop-color="#166ea2"/><stop offset="0.81" stop-color="#0a538a"/><stop offset="1" stop-color="#003f79"/></linearGradient></defs><g id="레이어_2" data-name="레이어 2"><g id="레이어_1-2" data-name="레이어 1"><path class="cls-1" d="M43.69,35.75h0v0Z"/><path class="cls-2" d="M59.12,21.53a14.7,14.7,0,0,1,23.36-2.74l10.88-9.2a28.95,28.95,0,0,0-43-.06,29,29,0,0,1,6.56,12Z"/><path class="cls-3" d="M99.83,21.53H56.93A29.1,29.1,0,0,0,29,0h0A29,29,0,0,0,0,29v29s14.22,0,14.22-12V29A14.73,14.73,0,0,1,43.15,25,14.55,14.55,0,0,1,43.69,29v6.8H84.9a14.7,14.7,0,0,1-23.71,3.37l-10.87,9.2A29,29,0,0,0,99.83,21.53Z"/></g></g></svg>